<svg width="200" height="40" viewBox="0 0 200 40" fill="none" xmlns="http://www.w3.org/2000/svg">
<mask id="mask0_304_1572" style="mask-type:alpha" maskUnits="userSpaceOnUse" x="0" y="0" width="40" height="40">
<rect width="40" height="40" fill="#D9D9D9"/>
</mask>
<g mask="url(#mask0_304_1572)">
<path d="M1.31958 35.3471V28.2917L4.65291 24.9583V14.7362L1.31958 11.4029V4.625H4.81958V7.95833H7.98625V4.625H11.4862V7.95833H14.6529V4.625H18.1529V11.4029L14.8196 14.7362V16.8471H25.2083V14.7362L21.875 11.4029V4.625H25.375V7.95833H28.5417V4.625H32.0417V7.95833H35.2083V4.625H38.7083V11.4029L35.375 14.7362V24.9583L38.7083 28.2917V35.3471H23.2637V30C23.2637 29.1028 22.9442 28.3344 22.305 27.695C21.6656 27.0558 20.8972 26.7363 20 26.7363C19.1028 26.7363 18.339 27.0558 17.7087 27.695C17.0787 28.3344 16.7637 29.1028 16.7637 30V35.3471H1.31958ZM4.81958 31.8471H13.2637V30C13.2637 28.1297 13.9189 26.5349 15.2292 25.2154C16.5394 23.896 18.1297 23.2363 20 23.2363C21.8703 23.2363 23.4651 23.896 24.7846 25.2154C26.104 26.5349 26.7637 28.1297 26.7637 30V31.8471H35.2083V29.7221L31.875 26.3887V13.3054L33.7221 11.4583H26.8612L28.7083 13.3054V20.3471H11.3196V13.3054L13.1667 11.4583H6.30541L8.15291 13.3054V26.3887L4.81958 29.7221V31.8471Z" fill="#EEEEFF"/>
</g>
<path d="M62.0256 29H55.5803V10.8182H62.0788C63.9077 10.8182 65.482 11.1822 66.8018 11.9102C68.1217 12.6322 69.1367 13.6709 69.8469 15.0263C70.5631 16.3816 70.9212 18.0033 70.9212 19.8913C70.9212 21.7853 70.5631 23.4129 69.8469 24.7741C69.1367 26.1354 68.1158 27.18 66.7841 27.908C65.4583 28.636 63.8722 29 62.0256 29ZM59.4244 25.7063H61.8658C63.0021 25.7063 63.958 25.5051 64.7333 25.1026C65.5146 24.6942 66.1005 24.0639 66.4911 23.2116C66.8877 22.3535 67.0859 21.2467 67.0859 19.8913C67.0859 18.5478 66.8877 17.4499 66.4911 16.5977C66.1005 15.7454 65.5175 15.118 64.7422 14.7156C63.9669 14.3131 63.011 14.1119 61.8746 14.1119H59.4244V25.7063ZM76.3362 29.2575C75.4662 29.2575 74.6908 29.1065 74.0102 28.8047C73.3296 28.4969 72.791 28.0442 72.3944 27.4464C72.0038 26.8427 71.8085 26.091 71.8085 25.1914C71.8085 24.4338 71.9476 23.7976 72.2258 23.2827C72.5039 22.7678 72.8827 22.3535 73.3621 22.0398C73.8415 21.7261 74.386 21.4893 74.9956 21.3295C75.6112 21.1697 76.2563 21.0573 76.931 20.9922C77.7241 20.9093 78.3633 20.8324 78.8486 20.7614C79.334 20.6844 79.6861 20.572 79.9051 20.424C80.1241 20.276 80.2336 20.0571 80.2336 19.767V19.7138C80.2336 19.1515 80.056 18.7165 79.7009 18.4087C79.3517 18.101 78.8546 17.9471 78.2094 17.9471C77.5288 17.9471 76.9872 18.098 76.5848 18.3999C76.1823 18.6958 75.916 19.0687 75.7858 19.5185L72.2879 19.2344C72.4655 18.4058 72.8147 17.6896 73.3355 17.0859C73.8563 16.4763 74.5281 16.0088 75.3508 15.6832C76.1794 15.3518 77.1382 15.1861 78.2272 15.1861C78.9848 15.1861 79.7098 15.2749 80.4023 15.4524C81.1006 15.63 81.7191 15.9052 82.2577 16.2781C82.8022 16.6509 83.2313 17.1303 83.545 17.7163C83.8587 18.2963 84.0155 18.9917 84.0155 19.8026V29H80.4289V27.109H80.3224C80.1034 27.5352 79.8104 27.911 79.4434 28.2365C79.0765 28.5561 78.6356 28.8076 78.1206 28.9911C77.6057 29.1687 77.0109 29.2575 76.3362 29.2575ZM77.4193 26.6474C77.9756 26.6474 78.4669 26.5379 78.893 26.3189C79.3192 26.094 79.6536 25.7921 79.8962 25.4134C80.1389 25.0346 80.2602 24.6055 80.2602 24.1261V22.679C80.1418 22.7559 79.9791 22.8269 79.7719 22.892C79.5707 22.9512 79.3428 23.0075 79.0883 23.0607C78.8338 23.1081 78.5793 23.1525 78.3248 23.1939C78.0703 23.2294 77.8395 23.262 77.6324 23.2915C77.1885 23.3567 76.8008 23.4602 76.4694 23.6023C76.1379 23.7443 75.8805 23.9367 75.697 24.1793C75.5135 24.4161 75.4218 24.712 75.4218 25.0671C75.4218 25.582 75.6082 25.9756 75.9811 26.2479C76.3599 26.5142 76.8393 26.6474 77.4193 26.6474ZM92.9529 15.3636V18.2045H84.7409V15.3636H92.9529ZM86.6052 12.0966H90.3872V24.8097C90.3872 25.1589 90.4404 25.4311 90.547 25.6264C90.6535 25.8158 90.8015 25.949 90.9909 26.0259C91.1862 26.1029 91.4111 26.1413 91.6656 26.1413C91.8431 26.1413 92.0207 26.1265 92.1982 26.0969C92.3758 26.0614 92.5119 26.0348 92.6066 26.017L93.2014 28.8313C93.012 28.8905 92.7457 28.9586 92.4024 29.0355C92.0592 29.1184 91.6419 29.1687 91.1507 29.1864C90.2392 29.2219 89.4402 29.1006 88.7536 28.8224C88.073 28.5443 87.5433 28.1122 87.1645 27.5263C86.7857 26.9403 86.5993 26.2005 86.6052 25.3068V12.0966ZM98.055 29.2575C97.1849 29.2575 96.4096 29.1065 95.729 28.8047C95.0483 28.4969 94.5097 28.0442 94.1132 27.4464C93.7226 26.8427 93.5273 26.091 93.5273 25.1914C93.5273 24.4338 93.6663 23.7976 93.9445 23.2827C94.2227 22.7678 94.6015 22.3535 95.0809 22.0398C95.5603 21.7261 96.1048 21.4893 96.7144 21.3295C97.3299 21.1697 97.9751 21.0573 98.6498 20.9922C99.4429 20.9093 100.082 20.8324 100.567 20.7614C101.053 20.6844 101.405 20.572 101.624 20.424C101.843 20.276 101.952 20.0571 101.952 19.767V19.7138C101.952 19.1515 101.775 18.7165 101.42 18.4087C101.07 18.101 100.573 17.9471 99.9282 17.9471C99.2475 17.9471 98.706 18.098 98.3035 18.3999C97.9011 18.6958 97.6347 19.0687 97.5045 19.5185L94.0067 19.2344C94.1842 18.4058 94.5334 17.6896 95.0542 17.0859C95.5751 16.4763 96.2468 16.0088 97.0695 15.6832C97.8981 15.3518 98.8569 15.1861 99.9459 15.1861C100.704 15.1861 101.429 15.2749 102.121 15.4524C102.819 15.63 103.438 15.9052 103.976 16.2781C104.521 16.6509 104.95 17.1303 105.264 17.7163C105.577 18.2963 105.734 18.9917 105.734 19.8026V29H102.148V27.109H102.041C101.822 27.5352 101.529 27.911 101.162 28.2365C100.795 28.5561 100.354 28.8076 99.8394 28.9911C99.3245 29.1687 98.7297 29.2575 98.055 29.2575ZM99.1381 26.6474C99.6944 26.6474 100.186 26.5379 100.612 26.3189C101.038 26.094 101.372 25.7921 101.615 25.4134C101.858 25.0346 101.979 24.6055 101.979 24.1261V22.679C101.861 22.7559 101.698 22.8269 101.491 22.892C101.289 22.9512 101.062 23.0075 100.807 23.0607C100.553 23.1081 100.298 23.1525 100.044 23.1939C99.7891 23.2294 99.5583 23.262 99.3511 23.2915C98.9072 23.3567 98.5196 23.4602 98.1881 23.6023C97.8567 23.7443 97.5992 23.9367 97.4157 24.1793C97.2323 24.4161 97.1405 24.712 97.1405 25.0671C97.1405 25.582 97.327 25.9756 97.6998 26.2479C98.0786 26.5142 98.558 26.6474 99.1381 26.6474ZM107.489 29V10.8182H119.528V13.9876H111.334V18.32H118.729V21.4893H111.334V29H107.489ZM125.953 29.2663C124.574 29.2663 123.381 28.9734 122.375 28.3874C121.375 27.7956 120.602 26.9729 120.058 25.9194C119.513 24.86 119.241 23.6319 119.241 22.2351C119.241 20.8265 119.513 19.5954 120.058 18.5419C120.602 17.4825 121.375 16.6598 122.375 16.0739C123.381 15.482 124.574 15.1861 125.953 15.1861C127.332 15.1861 128.521 15.482 129.522 16.0739C130.528 16.6598 131.303 17.4825 131.848 18.5419C132.392 19.5954 132.664 20.8265 132.664 22.2351C132.664 23.6319 132.392 24.86 131.848 25.9194C131.303 26.9729 130.528 27.7956 129.522 28.3874C128.521 28.9734 127.332 29.2663 125.953 29.2663ZM125.97 26.3366C126.598 26.3366 127.122 26.1591 127.542 25.804C127.962 25.4429 128.279 24.9517 128.492 24.3303C128.711 23.7088 128.82 23.0015 128.82 22.2085C128.82 21.4154 128.711 20.7081 128.492 20.0866C128.279 19.4652 127.962 18.974 127.542 18.6129C127.122 18.2519 126.598 18.0714 125.97 18.0714C125.337 18.0714 124.804 18.2519 124.372 18.6129C123.946 18.974 123.624 19.4652 123.405 20.0866C123.192 20.7081 123.085 21.4154 123.085 22.2085C123.085 23.0015 123.192 23.7088 123.405 24.3303C123.624 24.9517 123.946 25.4429 124.372 25.804C124.804 26.1591 125.337 26.3366 125.97 26.3366ZM133.873 29V15.3636H137.54V17.7429H137.682C137.931 16.8965 138.348 16.2573 138.934 15.8253C139.52 15.3873 140.195 15.1683 140.958 15.1683C141.147 15.1683 141.352 15.1802 141.571 15.2038C141.79 15.2275 141.982 15.2601 142.148 15.3015V18.6573C141.97 18.604 141.724 18.5567 141.411 18.5153C141.097 18.4738 140.81 18.4531 140.55 18.4531C139.993 18.4531 139.496 18.5745 139.058 18.8171C138.626 19.0539 138.283 19.3853 138.028 19.8114C137.78 20.2376 137.655 20.7288 137.655 21.2852V29H133.873ZM150.79 15.3636V18.2045H142.578V15.3636H150.79ZM144.442 12.0966H148.224V24.8097C148.224 25.1589 148.277 25.4311 148.384 25.6264C148.49 25.8158 148.638 25.949 148.828 26.0259C149.023 26.1029 149.248 26.1413 149.502 26.1413C149.68 26.1413 149.858 26.1265 150.035 26.0969C150.213 26.0614 150.349 26.0348 150.444 26.017L151.038 28.8313C150.849 28.8905 150.583 28.9586 150.239 29.0355C149.896 29.1184 149.479 29.1687 148.988 29.1864C148.076 29.2219 147.277 29.1006 146.591 28.8224C145.91 28.5443 145.38 28.1122 145.001 27.5263C144.623 26.9403 144.436 26.2005 144.442 25.3068V12.0966ZM152.003 29V15.3636H155.67V17.7429H155.812C156.061 16.8965 156.478 16.2573 157.064 15.8253C157.65 15.3873 158.324 15.1683 159.088 15.1683C159.277 15.1683 159.481 15.1802 159.7 15.2038C159.919 15.2275 160.112 15.2601 160.278 15.3015V18.6573C160.1 18.604 159.854 18.5567 159.541 18.5153C159.227 18.4738 158.94 18.4531 158.68 18.4531C158.123 18.4531 157.626 18.5745 157.188 18.8171C156.756 19.0539 156.413 19.3853 156.158 19.8114C155.91 20.2376 155.785 20.7288 155.785 21.2852V29H152.003ZM166.563 29.2663C165.16 29.2663 163.953 28.9822 162.94 28.4141C161.934 27.84 161.159 27.0291 160.614 25.9815C160.07 24.928 159.798 23.6822 159.798 22.244C159.798 20.8413 160.07 19.6102 160.614 18.5508C161.159 17.4914 161.925 16.6657 162.914 16.0739C163.908 15.482 165.074 15.1861 166.412 15.1861C167.311 15.1861 168.149 15.3311 168.924 15.6211C169.705 15.9052 170.386 16.3343 170.966 16.9084C171.552 17.4825 172.008 18.2045 172.333 19.0746C172.659 19.9387 172.821 20.9508 172.821 22.1108V23.1495H161.307V20.8058H169.261C169.261 20.2612 169.143 19.7789 168.906 19.3587C168.67 18.9384 168.341 18.61 167.921 18.3732C167.507 18.1306 167.024 18.0092 166.474 18.0092C165.9 18.0092 165.391 18.1424 164.947 18.4087C164.509 18.6692 164.166 19.0213 163.917 19.4652C163.668 19.9032 163.541 20.3915 163.535 20.93V23.1584C163.535 23.8331 163.66 24.4161 163.908 24.9073C164.163 25.3986 164.521 25.7773 164.982 26.0437C165.444 26.31 165.991 26.4432 166.625 26.4432C167.045 26.4432 167.43 26.384 167.779 26.2656C168.128 26.1473 168.427 25.9697 168.676 25.733C168.924 25.4962 169.113 25.2062 169.244 24.8629L172.742 25.0938C172.564 25.9342 172.2 26.6681 171.65 27.2955C171.105 27.9169 170.401 28.4022 169.537 28.7514C168.678 29.0947 167.687 29.2663 166.563 29.2663ZM185.385 19.2521L181.923 19.4652C181.864 19.1693 181.737 18.9029 181.541 18.6662C181.346 18.4235 181.089 18.2312 180.769 18.0891C180.455 17.9412 180.079 17.8672 179.641 17.8672C179.055 17.8672 178.561 17.9915 178.159 18.2401C177.756 18.4827 177.555 18.8082 177.555 19.2166C177.555 19.5421 177.685 19.8174 177.946 20.0423C178.206 20.2672 178.653 20.4477 179.286 20.5838L181.754 21.081C183.08 21.3532 184.069 21.7912 184.72 22.3949C185.371 22.9986 185.696 23.7917 185.696 24.7741C185.696 25.6679 185.433 26.4521 184.906 27.1268C184.385 27.8015 183.669 28.3282 182.758 28.707C181.852 29.0799 180.807 29.2663 179.624 29.2663C177.819 29.2663 176.38 28.8905 175.309 28.1388C174.244 27.3813 173.619 26.3514 173.436 25.0494L177.156 24.854C177.268 25.4045 177.54 25.8247 177.972 26.1147C178.404 26.3988 178.958 26.5408 179.633 26.5408C180.295 26.5408 180.828 26.4136 181.231 26.1591C181.639 25.8987 181.846 25.5643 181.852 25.1559C181.846 24.8126 181.701 24.5315 181.417 24.3125C181.133 24.0876 180.695 23.916 180.103 23.7976L177.742 23.3271C176.41 23.0607 175.419 22.5991 174.767 21.9421C174.122 21.2852 173.8 20.4477 173.8 19.4297C173.8 18.5537 174.037 17.7991 174.51 17.1658C174.989 16.5326 175.661 16.0443 176.525 15.701C177.395 15.3577 178.413 15.1861 179.579 15.1861C181.302 15.1861 182.657 15.5501 183.645 16.2781C184.64 17.006 185.22 17.9974 185.385 19.2521ZM198.173 19.2521L194.711 19.4652C194.652 19.1693 194.525 18.9029 194.329 18.6662C194.134 18.4235 193.877 18.2312 193.557 18.0891C193.243 17.9412 192.867 17.8672 192.43 17.8672C191.844 17.8672 191.349 17.9915 190.947 18.2401C190.544 18.4827 190.343 18.8082 190.343 19.2166C190.343 19.5421 190.473 19.8174 190.734 20.0423C190.994 20.2672 191.441 20.4477 192.074 20.5838L194.542 21.081C195.868 21.3532 196.857 21.7912 197.508 22.3949C198.159 22.9986 198.484 23.7917 198.484 24.7741C198.484 25.6679 198.221 26.4521 197.694 27.1268C197.173 27.8015 196.457 28.3282 195.546 28.707C194.64 29.0799 193.595 29.2663 192.412 29.2663C190.607 29.2663 189.168 28.8905 188.097 28.1388C187.032 27.3813 186.407 26.3514 186.224 25.0494L189.944 24.854C190.056 25.4045 190.328 25.8247 190.76 26.1147C191.193 26.3988 191.746 26.5408 192.421 26.5408C193.084 26.5408 193.616 26.4136 194.019 26.1591C194.427 25.8987 194.634 25.5643 194.64 25.1559C194.634 24.8126 194.489 24.5315 194.205 24.3125C193.921 24.0876 193.483 23.916 192.891 23.7976L190.53 23.3271C189.198 23.0607 188.207 22.5991 187.556 21.9421C186.91 21.2852 186.588 20.4477 186.588 19.4297C186.588 18.5537 186.825 17.7991 187.298 17.1658C187.778 16.5326 188.449 16.0443 189.313 15.701C190.183 15.3577 191.201 15.1861 192.367 15.1861C194.09 15.1861 195.445 15.5501 196.433 16.2781C197.428 17.006 198.008 17.9974 198.173 19.2521Z" fill="#EEEEFF"/>
</svg>
