<svg width="33" height="32" viewBox="0 0 33 32" fill="none" xmlns="http://www.w3.org/2000/svg">
<path d="M4.37761 31.8416C3.37372 31.8416 2.50289 31.4727 1.76511 30.7349C1.02734 29.9972 0.658447 29.1263 0.658447 28.1224V3.87744C0.658447 2.87161 1.02734 1.99911 1.76511 1.25994C2.50289 0.521055 3.37372 0.151611 4.37761 0.151611H28.6226C29.6284 0.151611 30.5009 0.521055 31.2401 1.25994C31.979 1.99911 32.3484 2.87161 32.3484 3.87744V28.1224C32.3484 29.1263 31.979 29.9972 31.2401 30.7349C30.5009 31.4727 29.6284 31.8416 28.6226 31.8416H4.37761ZM4.37761 28.1224H28.6226V3.87744H4.37761V28.1224ZM5.85595 24.8612H27.1722L20.518 15.9016L15.1389 22.9549L11.2601 17.7149L5.85595 24.8612Z" fill="#96ADFF" fill-opacity="0.5"/>
</svg>
