<svg width="37" height="37" viewBox="0 0 37 37" fill="none" xmlns="http://www.w3.org/2000/svg">
<path d="M13.0595 19.5446H14.7699V16.0825H16.5816C17.0644 16.0825 17.477 15.9147 17.8195 15.5792C18.162 15.2439 18.3333 14.8417 18.3333 14.3725V12.6063C18.3333 12.1235 18.162 11.7108 17.8195 11.3683C17.477 11.0258 17.0644 10.8546 16.5816 10.8546H13.0595V19.5446ZM14.7699 14.3725V12.6063H16.5816V14.3725H14.7699ZM19.9891 19.5446H23.4649C23.9424 19.5446 24.3569 19.3795 24.7083 19.0492C25.0594 18.7186 25.2349 18.3092 25.2349 17.8208V12.6063C25.2349 12.1235 25.058 11.7108 24.7041 11.3683C24.3505 11.0258 23.9419 10.8546 23.4783 10.8546H19.9891V19.5446ZM21.6991 17.8208V12.6063H23.4829V17.8208H21.6991ZM26.982 19.5446H28.6924V16.0825H30.4641V14.3725H28.6924V12.6063H30.4641V10.8546H26.982V19.5446ZM10.6595 29.8546C9.65313 29.8546 8.78174 29.4835 8.04535 28.7413C7.30869 27.9988 6.94036 27.1301 6.94036 26.1354V3.93043C6.94036 2.93376 7.30869 2.06362 8.04535 1.32001C8.78174 0.576396 9.65313 0.20459 10.6595 0.20459H32.8649C33.8613 0.20459 34.7298 0.576396 35.4704 1.32001C36.2106 2.06362 36.5808 2.93376 36.5808 3.93043V26.1354C36.5808 27.1301 36.2106 27.9988 35.4704 28.7413C34.7298 29.4835 33.8613 29.8546 32.8649 29.8546H10.6595ZM10.6595 26.1354H32.8649V3.93043H10.6595V26.1354ZM4.16286 36.3483C3.15452 36.3483 2.28313 35.9782 1.54869 35.2379C0.814244 34.4974 0.447021 33.6289 0.447021 32.6325V6.70792H4.16286V32.6325H30.087V36.3483H4.16286Z" fill="#96ADFF" fill-opacity="0.5"/>
</svg>
