<svg width="33" height="32" viewBox="0 0 33 32" fill="none" xmlns="http://www.w3.org/2000/svg">
<path d="M28.7496 31.9408H4.25042C3.24653 31.9408 2.37569 31.5719 1.63792 30.8341C0.900139 30.0963 0.53125 29.2255 0.53125 28.2216V3.75037C0.53125 2.74481 0.900139 1.87245 1.63792 1.13329C2.37569 0.394119 3.24653 0.0245361 4.25042 0.0245361H28.7496C29.7551 0.0245361 30.6275 0.394119 31.3667 1.13329C32.1058 1.87245 32.4754 2.74481 32.4754 3.75037V28.2216C32.4754 29.2255 32.1058 30.0963 31.3667 30.8341C30.6275 31.5719 29.7551 31.9408 28.7496 31.9408ZM4.25042 9.03954H28.7496V3.75037H4.25042V9.03954ZM9.0575 12.38H4.25042V28.2216H9.0575V12.38ZM23.9425 12.38V28.2216H28.7496V12.38H23.9425ZM20.6021 12.38H12.3979V28.2216H20.6021V12.38Z" fill="#96ADFF" fill-opacity="0.5"/>
</svg>
