<svg width="37" height="30" viewBox="0 0 37 30" fill="none" xmlns="http://www.w3.org/2000/svg">
<path d="M4.32049 29.2662C3.3166 29.2662 2.44576 28.895 1.70798 28.1525C0.970207 27.4102 0.601318 26.5418 0.601318 25.5471V4.45288C0.601318 3.45649 0.970207 2.58635 1.70798 1.84247C2.44576 1.09885 3.3166 0.727051 4.32049 0.727051H25.4047C26.4105 0.727051 27.2828 1.09885 28.0217 1.84247C28.7609 2.58635 29.1305 3.45649 29.1305 4.45288V12.5262L36.4055 5.25122V24.7487L29.1305 17.4737V25.5471C29.1305 26.5418 28.7609 27.4102 28.0217 28.1525C27.2828 28.895 26.4105 29.2662 25.4047 29.2662H4.32049ZM4.32049 25.5471H25.4047V4.45288H4.32049V25.5471Z" fill="#96ADFF" fill-opacity="0.5"/>
</svg>
