<svg width="39" height="39" viewBox="0 0 39 39" fill="none" xmlns="http://www.w3.org/2000/svg">
<path d="M8.94998 29.9H23.45V26.25H8.94998V29.9ZM8.94998 21.3H30.05V17.65H8.94998V21.3ZM8.94998 12.7H30.05V9.04998H8.94998V12.7ZM4.49998 38.15C3.54231 38.15 2.69464 37.781 1.95698 37.043C1.21898 36.3053 0.849976 35.4576 0.849976 34.5V4.49998C0.849976 3.54264 1.21898 2.69498 1.95698 1.95698C2.69464 1.21898 3.54231 0.849976 4.49998 0.849976H34.5C35.4573 0.849976 36.305 1.21898 37.043 1.95698C37.781 2.69498 38.15 3.54264 38.15 4.49998V34.5C38.15 35.4576 37.781 36.3053 37.043 37.043C36.305 37.781 35.4573 38.15 34.5 38.15H4.49998ZM4.49998 34.5H34.5V4.49998H4.49998V34.5Z" fill="#96ADFF" fill-opacity="0.4"/>
</svg>
