<svg width="18" height="14" viewBox="0 0 18 14" fill="none" xmlns="http://www.w3.org/2000/svg">
<path d="M0.810547 13.2542V11.1581C0.810547 10.7669 0.907352 10.4087 1.10096 10.0835C1.29444 9.75854 1.55562 9.4991 1.88451 9.30521C2.63451 8.86077 3.44555 8.51799 4.31763 8.27688C5.18971 8.03577 6.07714 7.91521 6.97992 7.91521C7.29937 7.91521 7.64805 7.94021 8.02596 7.99021C8.40388 8.04021 8.77339 8.10688 9.13451 8.19021L7.6543 9.68604C7.45402 9.65827 7.30909 9.64438 7.21951 9.64438H6.97992C6.25714 9.64438 5.53464 9.7416 4.81242 9.93604C4.0902 10.1305 3.40902 10.4122 2.76888 10.7813C2.70013 10.8221 2.64478 10.8768 2.60284 10.9454C2.56076 11.0139 2.53971 11.0931 2.53971 11.1829V11.525H8.36867L10.077 13.2542H0.810547ZM12.1762 13.1444L9.30888 10.2563L10.4053 9.14396L12.1762 10.9148L16.072 7.03979L17.1893 8.13125L12.1762 13.1444ZM6.97992 6.91521C6.09687 6.91521 5.34784 6.60778 4.73284 5.99292C4.11798 5.37806 3.81055 4.62903 3.81055 3.74583C3.81055 2.86278 4.11798 2.11458 4.73284 1.50125C5.34784 0.888057 6.09687 0.581459 6.97992 0.581459C7.86312 0.581459 8.61214 0.888057 9.22701 1.50125C9.84187 2.11458 10.1493 2.86278 10.1493 3.74583C10.1493 4.62903 9.84187 5.37806 9.22701 5.99292C8.61214 6.60778 7.86312 6.91521 6.97992 6.91521ZM6.9843 5.18604C7.38152 5.18604 7.72013 5.04465 8.00013 4.76188C8.28013 4.47896 8.42013 4.13889 8.42013 3.74167C8.42013 3.34445 8.27874 3.00667 7.99596 2.72834C7.71305 2.44986 7.37298 2.31063 6.97576 2.31063C6.57853 2.31063 6.23992 2.4516 5.95992 2.73354C5.67978 3.01549 5.53971 3.35445 5.53971 3.75042C5.53971 4.14764 5.68117 4.48625 5.96409 4.76625C6.247 5.04611 6.58707 5.18604 6.9843 5.18604Z" fill="#EEEEFF"/>
</svg>
