<svg width="21" height="20" viewBox="0 0 21 20" fill="none" xmlns="http://www.w3.org/2000/svg">
<mask id="mask0_304_2018" style="mask-type:alpha" maskUnits="userSpaceOnUse" x="0" y="0" width="21" height="20">
<rect x="0.5" width="20" height="20" fill="#D9D9D9"/>
</mask>
<g mask="url(#mask0_304_2018)">
<path d="M16.4275 17.1894L11.4135 12.1752C11.0002 12.4676 10.5458 12.6972 10.0502 12.8642C9.55479 13.0311 9.025 13.1146 8.46084 13.1146C7.04153 13.1146 5.83417 12.6169 4.83875 11.6215C3.84334 10.6259 3.34563 9.41877 3.34563 8.00002C3.34563 6.58127 3.84334 5.37412 4.83875 4.37856C5.83417 3.38315 7.04132 2.88544 8.46021 2.88544C9.87896 2.88544 11.086 3.38315 12.0815 4.37856C13.077 5.37412 13.5748 6.58148 13.5748 8.00065C13.5748 8.56815 13.4913 9.09801 13.3244 9.59023C13.1573 10.0823 12.9276 10.5334 12.6354 10.9434L17.6544 15.9673L16.4275 17.1894ZM8.46021 11.3854C9.40243 11.3854 10.2022 11.0568 10.8596 10.3994C11.5169 9.74217 11.8456 8.94238 11.8456 8.00002C11.8456 7.05766 11.5169 6.25787 10.8596 5.60065C10.2022 4.94328 9.40243 4.6146 8.46021 4.6146C7.51785 4.6146 6.71799 4.94328 6.06063 5.60065C5.4034 6.25787 5.07479 7.05766 5.07479 8.00002C5.07479 8.94238 5.4034 9.74217 6.06063 10.3994C6.71799 11.0568 7.51785 11.3854 8.46021 11.3854Z" fill="#96ADFF" fill-opacity="0.5"/>
</g>
</svg>
